<svg width="15" height="13" viewBox="0 0 15 13" fill="none" xmlns="http://www.w3.org/2000/svg">
<path fill-rule="evenodd" clip-rule="evenodd" d="M0.382917 1.62174C0.382917 1.41178 0.466324 1.21042 0.61479 1.06195C0.763257 0.913486 0.96462 0.830078 1.17458 0.830078H13.8333C14.0433 0.830078 14.2447 0.913486 14.3931 1.06195C14.5416 1.21042 14.625 1.41178 14.625 1.62174V10.5866C14.625 11.0065 14.4582 11.4092 14.1613 11.7062C13.8643 12.0031 13.4616 12.1699 13.0417 12.1699H1.95833C1.53841 12.1699 1.13568 12.0031 0.838748 11.7062C0.541815 11.4092 0.375 11.0065 0.375 10.5866V1.87824C0.375 1.84025 0.377375 1.80383 0.382917 1.76741V1.62174ZM1.95833 3.38241V10.5866H13.0417V3.38241L9.17913 7.24495C8.73375 7.6902 8.12977 7.94032 7.5 7.94032C6.87024 7.94032 6.26625 7.6902 5.82087 7.24495L1.95833 3.38083V3.38241ZM3.20283 2.38808H11.7972L8.0605 6.12474C7.98698 6.19835 7.89966 6.25674 7.80356 6.29658C7.70745 6.33642 7.60443 6.35693 7.5004 6.35693C7.39636 6.35693 7.29334 6.33642 7.19723 6.29658C7.10113 6.25674 7.01382 6.19835 6.94029 6.12474L3.20283 2.38808Z" fill="#496787"/>
</svg>
