<svg width="13" height="18" viewBox="0 0 13 18" fill="none" xmlns="http://www.w3.org/2000/svg">
<path d="M1.74999 17.4167C1.31457 17.4167 0.941699 17.2615 0.631366 16.9512C0.321033 16.6409 0.16613 16.2682 0.166658 15.8334V7.91669C0.166658 7.48127 0.321824 7.1084 0.632158 6.79806C0.942491 6.48773 1.3151 6.33283 1.74999 6.33335H2.54166V4.75002C2.54166 3.65488 2.92773 2.72124 3.69987 1.9491C4.47201 1.17697 5.40538 0.79116 6.49999 0.791688C7.59513 0.791688 8.52877 1.17776 9.30091 1.9499C10.073 2.72203 10.4589 3.65541 10.4583 4.75002V6.33335H11.25C11.6854 6.33335 12.0583 6.48852 12.3686 6.79885C12.679 7.10919 12.8339 7.4818 12.8333 7.91669V15.8334C12.8333 16.2688 12.6782 16.6416 12.3678 16.952C12.0575 17.2623 11.6849 17.4172 11.25 17.4167H1.74999ZM1.74999 15.8334H11.25V7.91669H1.74999V15.8334ZM6.49999 13.4584C6.93541 13.4584 7.30828 13.3032 7.61862 12.9929C7.92895 12.6825 8.08385 12.3099 8.08332 11.875C8.08332 11.4396 7.92816 11.0667 7.61782 10.7564C7.30749 10.4461 6.93488 10.2912 6.49999 10.2917C6.06457 10.2917 5.6917 10.4469 5.38137 10.7572C5.07103 11.0675 4.91613 11.4401 4.91666 11.875C4.91666 12.3104 5.07183 12.6833 5.38216 12.9936C5.69249 13.304 6.0651 13.4589 6.49999 13.4584ZM4.12499 6.33335H8.87499V4.75002C8.87499 4.0903 8.64409 3.52953 8.18228 3.06773C7.72048 2.60592 7.15971 2.37502 6.49999 2.37502C5.84027 2.37502 5.27951 2.60592 4.8177 3.06773C4.35589 3.52953 4.12499 4.0903 4.12499 4.75002V6.33335Z" fill="#007A78"/>
</svg>
