<svg width="39" height="38" viewBox="0 0 39 38" fill="none" xmlns="http://www.w3.org/2000/svg">
<path d="M38.1996 33.9141C35.7896 29.6843 32.0263 26.3885 27.5156 24.5573C29.7587 22.8749 31.4157 20.5294 32.2517 17.8531C33.0877 15.1767 33.0605 12.3052 32.1738 9.64515C31.2871 6.98513 29.586 4.67153 27.3114 3.03206C25.0367 1.39259 22.3039 0.510376 19.5 0.510376C16.6961 0.510376 13.9633 1.39259 11.6886 3.03206C9.41399 4.67153 7.71285 6.98513 6.82618 9.64515C5.93951 12.3052 5.91226 15.1767 6.74829 17.8531C7.58432 20.5294 9.24125 22.8749 11.4844 24.5573C6.97369 26.3885 3.21042 29.6843 0.800385 33.9141C0.65105 34.1542 0.551519 34.4219 0.507709 34.7013C0.463899 34.9806 0.476704 35.2659 0.545363 35.5402C0.614022 35.8146 0.737134 36.0723 0.907379 36.298C1.07762 36.5238 1.29153 36.7131 1.53637 36.8545C1.78121 36.996 2.052 37.0868 2.33263 37.1215C2.61327 37.1562 2.89801 37.1341 3.16995 37.0566C3.44188 36.9791 3.69546 36.8477 3.91559 36.6702C4.13572 36.4927 4.31792 36.2728 4.45136 36.0235C7.63652 30.518 13.2615 27.2344 19.5 27.2344C25.7385 27.2344 31.3635 30.5198 34.5486 36.0235C34.8378 36.4885 35.2965 36.8228 35.8277 36.9557C36.3589 37.0887 36.921 37.0099 37.3951 36.7359C37.8692 36.462 38.2183 36.0144 38.3684 35.4878C38.5185 34.9612 38.458 34.3969 38.1996 33.9141ZM10.3594 13.875C10.3594 12.0672 10.8955 10.2999 11.8998 8.79677C12.9042 7.2936 14.3318 6.12202 16.002 5.43019C17.6723 4.73836 19.5101 4.55734 21.2832 4.91003C23.0564 5.26273 24.6851 6.13329 25.9634 7.41163C27.2417 8.68997 28.1123 10.3187 28.465 12.0918C28.8177 13.8649 28.6367 15.7028 27.9448 17.373C27.253 19.0432 26.0814 20.4708 24.5783 21.4752C23.0751 22.4796 21.3078 23.0157 19.5 23.0157C17.0766 23.0129 14.7533 22.0489 13.0397 20.3353C11.3261 18.6217 10.3622 16.2984 10.3594 13.875Z" fill="#F8F8F8"/>
</svg>
